<svg width="247" height="45" viewBox="0 0 247 45" fill="none" xmlns="http://www.w3.org/2000/svg">
<path d="M32.676 38.9448C32.676 40.4381 32.1427 41.7181 31.076 42.7848C30.0093 43.8514 28.7293 44.3848 27.236 44.3848H16.42C11.94 44.3848 8.12133 42.8061 4.964 39.6488C1.80667 36.4488 0.228 32.6088 0.228 28.1288C0.228 23.6488 1.80667 19.8301 4.964 16.6728C8.12133 13.5154 11.94 11.9368 16.42 11.9368C20.9 11.9368 24.7187 13.5154 27.876 16.6728C31.076 19.8301 32.676 23.6488 32.676 28.1288V38.9448ZM21.796 33.5048V28.1288C21.796 26.6781 21.2627 25.4408 20.196 24.4168C19.1293 23.3501 17.8707 22.8168 16.42 22.8168C14.9267 22.8168 13.668 23.3288 12.644 24.3528C11.62 25.3768 11.108 26.6354 11.108 28.1288C11.108 29.6221 11.62 30.9021 12.644 31.9688C13.668 32.9928 14.9267 33.5048 16.42 33.5048H21.796Z" fill="#4BADAC"/>
<path d="M68.2965 38.9448C68.2965 40.4381 67.7632 41.7181 66.6965 42.7848C65.6298 43.8514 64.3498 44.3848 62.8565 44.3848C61.3632 44.3848 60.0832 43.8514 59.0165 42.7848C57.9498 41.7181 57.4165 40.4381 57.4165 38.9448V28.1288C57.4165 26.6354 56.8832 25.3768 55.8165 24.3528C54.7925 23.2861 53.5552 22.7528 52.1045 22.7528C50.6538 22.7528 49.3952 23.2861 48.3285 24.3528C47.2618 25.3768 46.7285 26.6354 46.7285 28.1288V38.9448C46.7285 40.4381 46.1952 41.7181 45.1285 42.7848C44.0618 43.8514 42.7818 44.3848 41.2885 44.3848C39.7952 44.3848 38.5152 43.8514 37.4485 42.7848C36.3818 41.7181 35.8485 40.4381 35.8485 38.9448V28.1288C35.8485 23.6488 37.4272 19.8301 40.5845 16.6728C43.7845 13.4728 47.6245 11.8728 52.1045 11.8728C56.5845 11.8728 60.4032 13.4728 63.5605 16.6728C66.7178 19.8301 68.2965 23.6488 68.2965 28.1288V38.9448Z" fill="#C1D64D"/>
<path d="M82.2285 6.36876C82.2285 7.8621 81.6952 9.1421 80.6285 10.2088C79.5618 11.2754 78.2818 11.8088 76.7885 11.8088C75.2525 11.8088 73.9512 11.2754 72.8845 10.2088C71.8605 9.1421 71.3485 7.8621 71.3485 6.36876C71.3485 4.87543 71.8605 3.59543 72.8845 2.52876C73.9512 1.4621 75.2525 0.928764 76.7885 0.928764C78.2818 0.928764 79.5618 1.4621 80.6285 2.52876C81.6952 3.59543 82.2285 4.87543 82.2285 6.36876ZM82.2285 38.9448C82.2285 40.4381 81.6952 41.7181 80.6285 42.7848C79.5618 43.8514 78.2818 44.3848 76.7885 44.3848C75.2525 44.3848 73.9512 43.8514 72.8845 42.7848C71.8605 41.7181 71.3485 40.4381 71.3485 38.9448V21.2808C71.3485 19.7874 71.8605 18.5074 72.8845 17.4408C73.9512 16.3741 75.2525 15.8408 76.7885 15.8408C78.2818 15.8408 79.5618 16.3741 80.6285 17.4408C81.6952 18.5074 82.2285 19.7874 82.2285 21.2808V38.9448Z" fill="#786CAC"/>
<path d="M139.304 38.9448C139.304 40.4381 138.77 41.7181 137.704 42.7848C136.637 43.8514 135.357 44.3848 133.864 44.3848C132.328 44.3848 131.026 43.8514 129.96 42.7848C128.936 41.7181 128.424 40.4381 128.424 38.9448V28.1288C128.424 26.6354 127.89 25.3768 126.824 24.3528C125.757 23.2861 124.498 22.7528 123.048 22.7528C121.554 22.7528 120.296 23.2861 119.272 24.3528C118.248 25.3768 117.736 26.6354 117.736 28.1288V38.8808C117.736 40.3741 117.181 41.6754 116.072 42.7848C115.005 43.8514 113.725 44.3848 112.232 44.3848C110.696 44.3848 109.394 43.8514 108.328 42.7848C107.304 41.7181 106.792 40.4381 106.792 38.9448V28.1288C106.792 26.6354 106.258 25.3768 105.192 24.3528C104.168 23.2861 102.93 22.7528 101.48 22.7528C99.9862 22.7528 98.7062 23.2861 97.6395 24.3528C96.6155 25.3768 96.1035 26.6354 96.1035 28.1288V38.8808C96.1035 40.3741 95.5702 41.6541 94.5035 42.7208C93.4368 43.7874 92.1568 44.3208 90.6635 44.3208C89.1275 44.3208 87.8262 43.7874 86.7595 42.7208C85.7355 41.6541 85.2235 40.3741 85.2235 38.8808V28.1288C85.2235 23.6488 86.8022 19.8301 89.9595 16.6728C93.1595 13.4728 96.9995 11.8728 101.48 11.8728C105.576 11.8728 109.181 13.2594 112.296 16.0328C115.325 13.2594 118.909 11.8728 123.048 11.8728C127.528 11.8728 131.346 13.4728 134.504 16.6728C137.704 19.8301 139.304 23.6488 139.304 28.1288V38.9448Z" fill="#E27A3B"/>
<path d="M174.478 28.1288C174.478 32.6088 172.899 36.4488 169.742 39.6488C166.585 42.8061 162.766 44.3848 158.286 44.3848C153.806 44.3848 149.966 42.8061 146.766 39.6488C143.609 36.4488 142.03 32.6088 142.03 28.1288C142.03 23.6488 143.609 19.8301 146.766 16.6728C149.966 13.5154 153.806 11.9368 158.286 11.9368C162.766 11.9368 166.585 13.5154 169.742 16.6728C172.899 19.8301 174.478 23.6488 174.478 28.1288ZM163.598 28.1288C163.598 26.6354 163.086 25.3768 162.062 24.3528C161.038 23.3288 159.779 22.8168 158.286 22.8168C156.793 22.8168 155.513 23.3501 154.446 24.4168C153.422 25.4408 152.91 26.6781 152.91 28.1288C152.91 29.5794 153.443 30.8381 154.51 31.9048C155.577 32.9714 156.835 33.5048 158.286 33.5048C159.737 33.5048 160.974 32.9928 161.998 31.9688C163.065 30.9021 163.598 29.6221 163.598 28.1288Z" fill="#F3BF38"/>
<path d="M206.278 17.3128C206.278 18.8061 205.745 20.0861 204.678 21.1528C203.611 22.2194 202.331 22.7528 200.838 22.7528H192.838C191.345 22.7528 190.065 23.2861 188.998 24.3528C187.974 25.3768 187.462 26.6354 187.462 28.1288V38.9448C187.462 40.4381 186.929 41.7181 185.862 42.7848C184.795 43.8514 183.515 44.3848 182.022 44.3848C180.486 44.3848 179.185 43.8514 178.118 42.7848C177.094 41.7181 176.582 40.4381 176.582 38.9448V28.1288C176.582 23.6488 178.161 19.8301 181.318 16.6728C184.518 13.4728 188.358 11.8728 192.838 11.8728H200.838C202.331 11.8728 203.611 12.4061 204.678 13.4728C205.745 14.5394 206.278 15.8194 206.278 17.3128Z" fill="#90C7D9"/>
<path d="M246.209 38.0948C246.209 39.8214 245.592 41.3014 244.359 42.5348C243.125 43.7681 241.645 44.3848 239.919 44.3848H227.561C222.381 44.3848 217.941 42.5594 214.241 38.9088C210.59 35.2088 208.765 30.7688 208.765 25.5888C208.765 20.4088 210.59 15.9934 214.241 12.3428C217.941 8.64276 222.381 6.79276 227.561 6.79276C231.951 6.79276 235.824 8.14943 239.179 10.8628C242.583 13.5761 244.803 17.0788 245.839 21.3708C245.937 21.6668 245.987 22.1354 245.987 22.7768C245.987 24.5034 245.37 25.9834 244.137 27.2168C242.903 28.4501 241.423 29.0668 239.697 29.0668C236.539 29.0668 234.467 27.4634 233.481 24.2568C232.543 21.0501 230.57 19.4468 227.561 19.4468C225.834 19.4468 224.354 20.0634 223.121 21.2968C221.937 22.4808 221.345 23.9114 221.345 25.5888C221.345 27.2661 221.937 28.7214 223.121 29.9548C224.354 31.1881 225.834 31.8048 227.561 31.8048H239.919C241.645 31.8048 243.125 32.4214 244.359 33.6548C245.592 34.8881 246.209 36.3681 246.209 38.0948Z" fill="#D33030"/>
</svg>
