<svg width="152" height="106" viewBox="0 0 152 106" fill="none" xmlns="http://www.w3.org/2000/svg">
<path d="M6.47406 38.397H81.7319V106H6.47406V73.409V38.397Z" fill="#F8CB97"/>
<path d="M81.7319 38.397L136.833 1.87092V33.6458V64.0685L81.7319 106V38.397Z" fill="#D8B68E"/>
<path d="M81.7319 58.7529L136.505 24.3907V35.9193V48.0884L103.813 68.7714L81.7319 85.5557V58.7529Z" fill="#D6BC9E"/>
<path d="M82.0585 38.5013H7.26385L79.3371 2.20166H136.266L82.0585 38.5013Z" fill="#C5A17E"/>
<g filter="url(#filter0_d_1_80)">
<path fill-rule="evenodd" clip-rule="evenodd" d="M134.656 3.73828L82.0463 38.8111L92.0005 43.9598L134.656 13.9794V3.73828Z" fill="#F8CB97"/>
</g>
<path d="M96.1135 46.4578L81.765 38.6705L136.868 2.00195L151.977 8.18166L96.1135 46.4578Z" fill="#F8CB97"/>
<path d="M0 46.5169L7.50372 38.6558V46.5169H0Z" fill="#D8B68E"/>
<path fill-rule="evenodd" clip-rule="evenodd" d="M41.7462 58.9113C43.066 63.2479 42.248 67.3379 39.9192 68.0466C37.5904 68.7554 34.6326 65.8145 33.3128 61.478C31.9931 57.1415 32.811 53.0515 35.1399 52.3427C37.4687 51.6339 40.4265 54.5748 41.7462 58.9113ZM31.4273 66.1065C33.7884 69.3715 34.4066 72.9554 32.8081 74.1114C31.2096 75.2673 27.9997 73.5575 25.6386 70.2925C23.2776 67.0275 22.6594 63.4436 24.2579 62.2876C25.8564 61.1317 29.0663 62.8415 31.4273 66.1065ZM45.2811 87.7851C40.9981 91.9678 35.6122 93.4212 32.3545 90.9594C28.5529 88.0865 29.0893 80.9698 33.5525 75.0637C36.9236 70.6029 41.5707 68.1085 45.2811 68.3928C48.9916 68.1085 53.6387 70.6029 57.0097 75.0637C61.4729 80.9698 62.0093 88.0865 58.2077 90.9594C54.9501 93.4212 49.5641 91.9678 45.2811 87.7851ZM57.6115 74.1114C56.013 72.9554 56.6312 69.3715 58.9922 66.1065C61.3533 62.8415 64.5632 61.1317 66.1617 62.2876C67.7602 63.4436 67.142 67.0275 64.7809 70.2925C62.4198 73.5575 59.21 75.2673 57.6115 74.1114ZM50.5007 68.0466C48.1719 67.3379 47.3539 63.2479 48.6737 58.9113C49.9935 54.5748 52.9512 51.6339 55.2801 52.3427C57.6089 53.0515 58.4269 57.1415 57.1071 61.478C55.7873 65.8145 52.8295 68.7554 50.5007 68.0466Z" fill="#404040"/>
<path d="M79.4302 38.4241L79.8588 2.16357H136.505L82.7187 38.4241H79.4302Z" fill="#AC8D6E"/>
<path d="M37.7422 38.4365H53.6434V49.4158H37.7422V38.4365Z" fill="#DEB079"/>
<path d="M37.7422 94.6377H53.6434V105.617H37.7422V94.6377Z" fill="#DEB079"/>
<rect width="45.2523" height="23.1636" transform="matrix(0.83205 -0.5547 0 1 92.5005 53.2061)" fill="#1D1D1D" fill-opacity="0.3"/>
<path d="M105.07 43.1465V42.0895L100.76 44.9628V49.8628L101.809 49.1639V47.6309L104.721 45.6894V44.6254L101.809 46.5669V45.3209L105.07 43.1465ZM108.236 40.6859C107.596 41.1131 106.99 41.7339 106.477 42.6286V41.9286L105.481 42.5925V46.7155L106.477 46.0516V43.5806C107.083 42.6097 107.724 42.0286 108.283 41.6559C108.574 41.4617 108.836 41.329 109.162 41.2096V40.2086C108.929 40.2939 108.644 40.4141 108.236 40.6859ZM112.776 35.7697L110.51 37.8402V38.6662L112.776 36.5957V35.7697ZM111.605 38.4402C110.888 38.9178 110.201 39.53 109.502 40.2689L109.858 40.9071C110.562 40.1852 111.11 39.7712 111.558 39.4723C112.024 39.1616 112.863 38.6655 112.863 39.4495C112.414 39.5665 111.873 39.8156 111.284 40.2078C110.195 40.9339 109.217 41.9222 109.217 42.9932C109.217 43.9242 109.817 43.8952 110.778 43.2546C111.587 42.7148 112.257 42.0443 112.863 41.2835V41.7945L113.865 41.1266V39.0476C113.853 37.4944 113.038 37.485 111.605 38.4402ZM112.863 40.5135C112.35 41.1212 111.605 41.8212 111.063 42.1823C110.545 42.5279 110.213 42.7142 110.213 42.2802C110.213 41.8602 110.661 41.4072 111.407 40.9102C112.042 40.487 112.513 40.2915 112.863 40.1915V40.5135ZM117.967 34.2685V34.9335C117.624 34.7006 117.047 34.812 116.232 35.3556C115.055 36.14 114.216 37.3151 114.216 38.7711C114.216 40.2271 115.055 40.284 116.232 39.4996C117.041 38.9599 117.618 38.3025 117.967 37.6075C117.927 38.6917 117.542 39.424 116.511 40.1112C115.754 40.616 114.985 40.9256 114.583 41.1025V42.0685C114.915 41.9522 115.737 41.6287 116.733 40.9647C118.031 40.0988 118.969 38.7457 118.969 37.0657V33.6007L117.967 34.2685ZM116.593 38.2579C115.655 38.883 115.212 38.8631 115.212 38.1071C115.212 37.3511 115.655 36.741 116.593 36.1159C117.531 35.4907 117.967 35.5145 117.967 36.2705C117.967 37.0265 117.531 37.6327 116.593 38.2579ZM119.434 31.814V32.857L120.43 32.193V31.15L119.434 31.814ZM119.434 33.291V37.414L120.43 36.7501V32.627L119.434 33.291ZM120.895 30.8395V36.4395L121.891 35.7755V30.1755L120.895 30.8395Z" fill="#D8B68E"/>
<g clip-path="url(#clip0_1_80)">
<rect width="14" height="14" transform="matrix(0.83205 -0.5547 0 1 89.6933 62.2412)" fill="#D8B68E"/>
<path fill-rule="evenodd" clip-rule="evenodd" d="M91.1358 67.9761L93.5377 61.3748L95.5178 64.1766L97.4979 58.7347L99.8998 62.1334L97.9139 63.4573V66.8591L97.0819 67.4138V64.012L95.9396 64.7735L95.096 65.336L93.9538 66.0974V69.4992L93.1217 70.0539V66.6521L91.1358 67.9761ZM91.9487 72.5412L98.8686 67.9279V66.9279L91.9487 71.5412V72.5412Z" fill="black"/>
</g>
<g clip-path="url(#clip1_1_80)">
<rect width="15" height="14" transform="matrix(0.83205 -0.5547 0 1 104.67 52.2568)" fill="#D8B68E"/>
<path fill-rule="evenodd" clip-rule="evenodd" d="M111.416 51.4759L111.676 51.0086L108.598 53.0605V53.0606C108.598 54.9327 109.416 55.9445 110.494 55.5486V57.9515L108.872 59.0329V60.0329L112.949 57.3153V56.3153L111.326 57.3968V54.9939C112.405 53.9517 113.223 51.8493 113.223 49.9772V49.9772L112.283 50.6041L112.083 50.9634L112.52 50.6721L112.174 51.3271L111.505 52.5959L111.208 52.4448L111.531 51.831L111.035 52.1621L111.416 51.4759Z" fill="black"/>
</g>
<g clip-path="url(#clip2_1_80)">
<rect width="15" height="14" transform="matrix(0.83205 -0.5547 0 1 120.479 41.7173)" fill="#D8B68E"/>
<path fill-rule="evenodd" clip-rule="evenodd" d="M120.711 43.8096V42.9434L122.375 41.834V42.7002L120.711 43.8096ZM126.159 45.5672L123.389 47.4138C123.389 45.5695 124.816 43.1235 126.575 41.9504C128.335 40.7774 129.761 41.3217 129.761 43.166L126.991 45.0125V48.9876C126.991 49.5442 126.616 50.2457 126.153 50.5545C125.69 50.8632 125.314 50.6623 125.314 50.1057L125.314 49.504L126.146 48.9494L126.146 49.551L126.146 49.5526L126.147 49.5536L126.147 49.5537C126.147 49.5541 126.147 49.5548 126.148 49.5553L126.149 49.5556L126.15 49.5557L126.15 49.5557C126.151 49.5556 126.151 49.5556 126.153 49.5545C126.154 49.5538 126.154 49.5533 126.155 49.5529L126.155 49.5525L126.156 49.5513L126.157 49.5491C126.158 49.5474 126.159 49.5461 126.159 49.5454L126.159 49.5454C126.159 49.5451 126.159 49.5442 126.159 49.5423V45.5672ZM121.109 44.353V45.2193L122.773 44.1099V43.2436L121.109 44.353ZM122.702 42.4821V41.6159L124.366 40.5065V41.3727L122.702 42.4821ZM123.1 43.0256V43.8918L124.764 42.7824V41.9162L123.1 43.0256ZM124.693 41.1547V40.2884L126.357 39.179V40.0453L124.693 41.1547ZM125.091 41.6981V42.5644L126.755 41.455V40.5887L125.091 41.6981ZM126.684 39.8273V38.961L128.348 37.8516V38.7179L126.684 39.8273ZM127.082 40.3707V41.237L128.746 40.1276V39.2613L127.082 40.3707ZM128.675 38.4998V37.6336L130.339 36.5242V37.3904L128.675 38.4998ZM129.073 39.0433V39.9095L130.738 38.8001V37.9339L129.073 39.0433ZM130.666 37.1724V36.3061L132.331 35.1967V36.063L130.666 37.1724ZM131.065 37.7158V38.582L132.729 37.4726V36.6064L131.065 37.7158Z" fill="black"/>
</g>
<defs>
<filter id="filter0_d_1_80" x="76.0463" y="0.738281" width="64.6093" height="52.2217" filterUnits="userSpaceOnUse" color-interpolation-filters="sRGB">
<feFlood flood-opacity="0" result="BackgroundImageFix"/>
<feColorMatrix in="SourceAlpha" type="matrix" values="0 0 0 0 0 0 0 0 0 0 0 0 0 0 0 0 0 0 127 0" result="hardAlpha"/>
<feOffset dy="3"/>
<feGaussianBlur stdDeviation="3"/>
<feComposite in2="hardAlpha" operator="out"/>
<feColorMatrix type="matrix" values="0 0 0 0 0.670833 0 0 0 0 0.548942 0 0 0 0 0.40809 0 0 0 1 0"/>
<feBlend mode="normal" in2="BackgroundImageFix" result="effect1_dropShadow_1_80"/>
<feBlend mode="normal" in="SourceGraphic" in2="effect1_dropShadow_1_80" result="shape"/>
</filter>
<clipPath id="clip0_1_80">
<rect width="14" height="14" fill="white" transform="matrix(0.83205 -0.5547 0 1 89.6933 62.2412)"/>
</clipPath>
<clipPath id="clip1_1_80">
<rect width="15" height="14" fill="white" transform="matrix(0.83205 -0.5547 0 1 104.67 52.2568)"/>
</clipPath>
<clipPath id="clip2_1_80">
<rect width="15" height="14" fill="white" transform="matrix(0.83205 -0.5547 0 1 120.479 41.7173)"/>
</clipPath>
</defs>
</svg>
