<svg width="289" height="305" viewBox="0 0 289 305" fill="none" xmlns="http://www.w3.org/2000/svg">
<path fill-rule="evenodd" clip-rule="evenodd" d="M264.59 136.56C238.297 147.205 211.693 142.771 205.169 126.655C198.645 110.54 214.67 88.8471 240.963 78.2021C267.256 67.5571 279.127 73.0721 285.652 89.1871C292.176 105.302 290.883 125.915 264.59 136.56ZM248.299 218.976C225.602 219.447 206.968 208.552 206.679 194.641C206.39 180.73 224.556 169.071 247.252 168.6C269.949 168.128 277.021 181.162 277.31 195.073C277.599 208.983 270.995 218.504 248.299 218.976ZM75.0984 301.388C23.5406 288.714 -8.54797 238.95 3.42642 190.237C15.4008 141.524 111.64 80.2938 163.198 92.9675C214.756 105.641 202.108 187.419 190.133 236.133C178.159 284.846 126.656 314.062 75.0984 301.388ZM87.5429 97.9651C73.9674 101.015 58.9278 85.5326 53.9509 63.3832C48.974 41.2338 56.1367 34.7127 69.7122 31.6624C83.2876 28.612 98.135 30.1875 103.112 52.3369C108.089 74.4863 101.118 94.9147 87.5429 97.9651ZM157.966 88.8461C140.758 86.3701 130.082 61.6021 134.122 33.5251C138.162 5.44805 162.257 -1.09058 179.465 1.38539C196.674 3.86136 200.479 14.4143 196.44 42.4913C192.4 70.5683 175.175 91.3221 157.966 88.8461Z" fill="url(#paint0_radial_1_39)"/>
<defs>
<radialGradient id="paint0_radial_1_39" cx="0" cy="0" r="1" gradientUnits="userSpaceOnUse" gradientTransform="translate(197.584 43.7798) rotate(124.577) scale(296.879 181.958)">
<stop stop-color="#FFDA7B"/>
<stop offset="1" stop-color="#F3BF38"/>
</radialGradient>
</defs>
</svg>
