<svg width="221" height="227" viewBox="0 0 221 227" fill="none" xmlns="http://www.w3.org/2000/svg">
<path fill-rule="evenodd" clip-rule="evenodd" d="M111.126 21.7933C116.483 42.5045 110.536 61.9559 97.8416 65.2392C85.1476 68.5226 70.5144 54.3945 65.1573 33.6833C59.8002 12.9721 65.0981 4.64258 77.7921 1.35921C90.486 -1.92415 105.769 1.08202 111.126 21.7933ZM171.132 42.1286C169.239 59.1444 159.249 71.9977 148.82 70.8372C138.391 69.6767 131.472 54.9419 133.365 37.9261C135.259 20.9103 145.703 16.9127 156.132 18.0731C166.561 19.2337 173.026 25.1128 171.132 42.1286ZM215.61 179.776C201.033 217.069 160.652 236.136 125.416 222.363C90.1808 208.59 53.9249 130.578 68.5019 93.2855C83.0788 55.9925 142.969 73.5405 178.204 87.3132C213.44 101.086 230.187 142.483 215.61 179.776ZM64.7524 150.343C65.6897 160.795 52.6258 170.507 35.5734 172.036C18.521 173.566 14.3543 167.565 13.417 157.114C12.4797 146.662 15.1267 135.718 32.1791 134.188C49.2315 132.659 63.8151 139.892 64.7524 150.343ZM64.9029 96.7891C61.3489 109.41 41.7748 114.941 21.1829 109.142C0.590877 103.344 -1.91357 84.6822 1.64042 72.0613C5.19429 59.4404 13.4608 57.6394 34.0527 63.4379C54.6447 69.2364 68.4568 84.1682 64.9029 96.7891Z" fill="url(#paint0_radial_1_38)"/>
<defs>
<radialGradient id="paint0_radial_1_38" cx="0" cy="0" r="1" gradientUnits="userSpaceOnUse" gradientTransform="translate(49.8347 32.5993) rotate(49.9773) scale(235.393 144.273)">
<stop stop-color="#35EC68"/>
<stop offset="1" stop-color="#4BADAC"/>
</radialGradient>
</defs>
</svg>
